# xmcd
#
# Track frame offsets:
# 150
# 21254
# 41296
# 65352
# 79152
# 100646
# 120467
# 136365
# 157234
# 172162
# 194234
# 213308
# 242260
# 262811
# 291730
# 316866
#
# Disc length: 4546 seconds
#
#
# Revision: 0
# Processed by: cddbd v1.5.2PL0 Copyright (c) Steve Scherf et al.
# Submitted via: FreeRIP 2.945 
#
DISCID=e511c010
DTITLE=The Manhattans and Gerald Alston - Kiss And Say Goodbye
DYEAR=1995
DGENRE=R&B
TTITLE0=Shining Star
TTITLE1=Kiss And Say Goodbye
TTITLE2=I Kind a Miss You
TTITLE3=Hurt 1976
TTITLE4=Crazy
TTITLE5=Forever By You Side
TTITLE6=Reasons
TTITLE7=It Feel So Good To Be Loved So Bad
TTITLE8=Everybody Plays The Pool
TTITLE9=Just The Lonely Talking Agains
TTITLE10=You Send Me
TTITLE11=Send For Me
TTITLE12=Stay The Night
TTITLE13=Take Me Where You Wany To
TTITLE14=Slow Motion
TTITLE15=Stay A Little While
EXTD=Áudio Dvd
EXTT0=
EXTT1=
EXTT2=
EXTT3=
EXTT4=
EXTT5=
EXTT6=
EXTT7=
EXTT8=
EXTT9=
EXTT10=
EXTT11=
EXTT12=
EXTT13=
EXTT14=
EXTT15=
PLAYORDER=
